<svg width="61" height="15" viewBox="0 0 61 15" fill="none" xmlns="http://www.w3.org/2000/svg">
<path d="M2.2168 12.6465C2.2168 13.4082 1.80664 13.8574 1.11328 13.8574C0.410156 13.8574 0 13.4082 0 12.6465V2.20703C0 0.966797 0.546875 0.429688 1.81641 0.429688H5.14648C7.89062 0.429688 9.59961 1.98242 9.59961 4.46289C9.59961 6.17188 8.70117 7.54883 7.20703 8.13477L9.27734 12.0215C9.4043 12.2461 9.47266 12.5488 9.47266 12.793C9.47266 13.3887 9.00391 13.8086 8.38867 13.8086C7.8125 13.8086 7.5 13.5547 7.12891 12.8223L5.00977 8.64258H2.2168V12.6465ZM2.2168 6.89453H4.80469C6.45508 6.89453 7.37305 6.09375 7.37305 4.61914C7.37305 3.14453 6.43555 2.29492 4.85352 2.29492H2.2168V6.89453ZM11.582 9.3457V7.88086C11.582 5.12695 13.4082 3.24219 16.0742 3.24219C18.623 3.24219 20.4297 5.07812 20.4297 7.61719C20.4297 8.75977 20.1562 9.11133 19.2969 9.11133H13.7891V9.59961C13.7891 11.1914 14.7852 12.207 16.416 12.207C17.2461 12.207 17.8613 11.9727 18.3594 11.5234C18.8672 11.0938 19.0234 10.9863 19.3652 10.9863C19.834 10.9863 20.1562 11.3281 20.1562 11.8262C20.1562 12.207 19.9219 12.6172 19.5215 12.9395C18.8574 13.5742 17.6465 13.9551 16.2891 13.9551C13.3789 13.9551 11.582 12.2168 11.582 9.3457ZM13.7891 7.59766H18.3301V7.56836C18.3301 5.99609 17.4609 4.98047 16.1035 4.98047C14.707 4.98047 13.7891 6.02539 13.7891 7.56836V7.59766Z" fill="#19E65E"/>
<path d="M33.7012 9.18945C33.7012 12.1484 31.5137 14.0527 28.1055 14.0527C24.6387 14.0527 22.5098 12.1387 22.5098 9.17969V2.03125C22.5098 0.976562 23.1152 0.332031 24.1309 0.332031C25.1367 0.332031 25.7422 0.976562 25.7422 2.03125V8.76953C25.7422 10.3809 26.6211 11.3184 28.1055 11.3184C29.5703 11.3184 30.4688 10.3613 30.4688 8.76953V2.03125C30.4688 0.976562 31.0645 0.332031 32.0801 0.332031C33.0859 0.332031 33.7012 0.976562 33.7012 2.03125V9.18945ZM35.5566 11.6895C35.5566 11.0449 36.0156 10.6055 36.6992 10.6055C37.0605 10.6055 37.3438 10.7324 37.8613 11.0449C38.6914 11.5625 39.2969 11.7773 40.0195 11.7773C40.918 11.7773 41.4648 11.4258 41.4648 10.8398C41.4648 10.3223 41.0352 9.96094 40.0781 9.74609L38.623 9.43359C36.6113 9.01367 35.6934 8.04688 35.6934 6.45508C35.6934 4.42383 37.4512 3.07617 40.166 3.07617C41.1426 3.07617 42.0703 3.26172 42.8125 3.62305C43.6523 4.01367 44.1211 4.58984 44.1211 5.24414C44.1211 5.88867 43.6523 6.2793 42.9785 6.2793C42.666 6.2793 42.334 6.18164 41.8066 5.88867C41.0254 5.42969 40.5371 5.2832 40 5.2832C39.1797 5.2832 38.6914 5.69336 38.6914 6.26953C38.6914 6.76758 39.043 7.05078 39.8535 7.22656L41.6895 7.59766C43.5742 7.98828 44.4629 8.95508 44.4629 10.5566C44.4629 12.6953 42.7441 14.0137 39.8438 14.0137C38.6621 14.0137 37.6074 13.7891 36.8262 13.3887C36.0059 12.9688 35.5566 12.373 35.5566 11.6895ZM45.9082 9.13086V7.97852C45.9082 5.0293 47.8613 3.07617 50.8008 3.07617C53.5645 3.07617 55.5176 5.00977 55.5176 7.59766C55.5176 8.78906 55.0977 9.21875 53.9746 9.21875H49.1016V9.59961C49.1211 10.8301 49.9414 11.6602 51.3379 11.6602C52.0898 11.6602 52.5977 11.4941 52.998 11.2012C53.4766 10.8984 53.6816 10.7129 54.1699 10.7129C54.8047 10.7129 55.2246 11.123 55.2246 11.7871C55.2246 12.3438 54.8828 12.832 54.2871 13.2031C53.5742 13.7109 52.4316 14.0137 51.1133 14.0137C47.8906 14.0137 45.9082 12.1777 45.9082 9.13086ZM49.1016 7.42188H52.5586V7.39258C52.5586 6.20117 51.8945 5.41992 50.8691 5.41992C49.7656 5.41992 49.1016 6.2207 49.1016 7.39258V7.42188ZM57.6367 8.24219L57.3926 1.66016C57.3535 0.742188 58.0664 0 59.0527 0C60.0488 0 60.7617 0.742188 60.7227 1.66016L60.4492 8.24219C60.4102 9.0332 59.8047 9.58008 59.0527 9.58008C58.2715 9.58008 57.666 9.01367 57.6367 8.24219ZM57.3438 12.4121C57.3438 11.4746 58.1152 10.8691 59.0527 10.8691C59.9902 10.8691 60.752 11.4746 60.752 12.4121C60.752 13.3496 59.9902 13.9551 59.0527 13.9551C58.1152 13.9551 57.3438 13.3496 57.3438 12.4121Z" fill="#26C9B9"/>
</svg>
