<svg width="274" height="262" viewBox="0 0 274 262" fill="none" xmlns="http://www.w3.org/2000/svg">
<g clip-path="url(#clip0_31_2053)">
<path d="M273.8 177.2V150.05L273.81 60.4901C273.81 60.0501 273.46 59.7001 273.02 59.7001C268.44 59.7101 263.58 59.5401 259.15 59.7901C246.15 60.5101 234.6 72.0501 233.13 84.8501C232.21 92.8601 233.31 101.44 232.48 109.61C231.48 120.2 227.23 130.23 220.31 138.32C208.7 151.84 191.12 158.89 174.59 164.26C168.3 166.3 166.56 166.28 159.91 164.94C154.4 163.83 151.9 163.09 148.11 161.63C146.33 160.95 142.67 159.75 141.32 161.67C137.98 166.52 144.25 169.14 147.89 171.2L149.7 171.84C151.94 172.63 154.25 173.24 156.59 173.65L158.18 173.93C161.97 178.67 157.12 187.41 154.09 191.22C148.31 198.47 141.1 201.84 132.26 203.02C131.8 203.08 131.48 203.51 131.58 203.97C134.48 217.83 141.39 230.54 151.46 240.51C164.84 253.89 182.94 261.46 201.86 261.59C220.98 261.61 239.31 253.98 252.75 240.38C262.07 231.1 268.67 219.43 271.81 206.66C274.31 196.33 273.78 187.76 273.78 177.22L273.8 177.2ZM254.92 148.4C250.49 160.78 243.07 170.27 232.8 178.37C232.84 191.1 233.99 201.02 224.43 211.26C218.85 217.25 211.12 220.78 202.94 221.06C194.44 221.31 186.81 218.06 180.68 212.28C175.09 206.92 171.78 199.62 171.43 191.88C177.68 190.72 183.85 189.18 189.9 187.26C215.99 179.27 243.27 167.11 256.66 141.84C257.07 142.3 255.25 147.49 254.93 148.4H254.92Z" fill="#26C9B9"/>
<path d="M152.98 177.02C153.53 190.59 139.2 195.65 127.18 195.81C118.59 195.93 110.19 193.93 101.91 191.93C96.56 190.67 91.23 189.29 85.94 187.78C64.61 181.66 41.63 172.03 26.31 155.22C22.31 150.83 19.83 146.73 16.98 141.59C17.64 144.81 18.51 147.28 19.72 150.31C24.14 161.44 31.55 171.12 41.14 178.29C41.22 181.46 41.14 185.03 41.14 188.24V208.16L41.15 261.53H0.07003L0.06003 142.99V112.33C0.06003 106.16 -0.30997 96.6601 0.81003 90.9701C2.87003 80.8601 8.80003 71.9501 17.33 66.1501C21.76 63.1901 27.12 61.1601 32.37 60.2501C36.05 59.6101 40.08 59.7501 43.84 59.7501H56.71H73.3C78.9 59.7501 84.36 59.5101 89.89 60.6301C99.61 62.5901 109.64 66.7701 116.61 73.9901C118.64 76.0901 120.05 78.1601 121.65 80.5401C120.01 81.1001 118.39 81.7101 116.8 82.3801C103.97 87.9201 93.9 98.3701 88.84 111.4C84.73 121.99 84.26 133.64 87.5 144.52C88.41 147.53 89.66 150.28 90.91 153.16C86.1 151.46 81.42 149.37 76.94 146.93C73.52 145.08 69.31 142.4 66.39 139.89C63.66 137.54 63.89 131.6 63.93 128.39C64.06 115.62 67.82 104.3 73.86 93.2501L57.18 93.2101C53.05 93.2101 47.92 92.4901 44.52 95.0801C40.37 98.2401 40.84 103.61 41.24 108.23C42.03 118.42 45.77 128.17 52.01 136.27C62.94 150.36 80.56 158.12 97.09 163.52C100.35 164.29 105.46 166.67 108.83 166.17C113 165.55 117.56 163.94 121.69 162.96C124.68 162.25 127.69 160.5 130.81 160.71C131.5 160.75 132.38 161.3 132.74 161.9C135.07 166.24 130.65 168.34 127.63 170.22C127.04 170.58 126.68 170.88 126.56 171.5L126.8 171.82C127.86 172.38 129.1 172.49 130.28 172.69L152.96 177.06L152.98 177.02Z" fill="#19E65E"/>
<path d="M61.4199 187.77C62.6099 188.06 65.6499 189.26 66.9399 189.74C70.0099 190.91 73.0999 191.99 76.2299 192.98C83.4399 195.2 90.7199 197.19 98.0599 198.96C103.85 200.37 108.89 201.61 114.76 202.58C115.63 203.74 117.47 207.08 118.27 208.47C120.74 212.72 123.16 216.99 125.54 221.29C133.57 235.7 142.27 247.13 156.61 255.92C158.73 257.19 160.89 258.38 163.1 259.48C164.16 259.99 166.02 260.77 166.96 261.32L167.21 261.47C160.28 261.74 151.82 261.52 144.78 261.52H131.5C124.96 261.52 118.87 261.89 112.53 259.91C106.83 258.1 101.75 254.76 97.8199 250.25C94.7999 246.81 91.9699 241.44 89.6399 237.39C86.3299 231.7 83.0699 225.98 79.8699 220.23L68.2399 199.75C66.0299 195.88 63.4799 191.67 61.4199 187.78V187.77Z" fill="#19E65E"/>
<path d="M132.76 57.25C134.36 57.07 137.6 57.11 139.21 57.16C148.36 57.39 157.39 59.36 165.81 62.96C183.42 70.44 197.34 84.61 204.5 102.35C208.02 111.13 209.84 120.49 209.89 129.95C209.85 137.57 209.01 139.26 202.69 143.38C196.23 147.59 190.05 150.41 182.91 153.24L183.55 151.86C188.59 141.92 189.7 129.79 187.26 118.99C184.31 105.51 176.11 93.76 164.47 86.35C153.56 79.46 139.74 76.41 127.05 79.26C122.85 71.56 117.49 66.47 109.96 62.07C111.93 61.46 113.88 60.68 115.91 60.06C121.63 58.32 126.84 57.65 132.76 57.25Z" fill="#26C9B9"/>
<path d="M234.71 0.1201C239.52 -0.5299 246.08 1.6201 249.88 4.6101C254.48 8.1201 257.8 14.0801 258.35 19.9101C259.6 33.3301 253.19 51.4601 237.98 53.2301C222.99 54.4801 215.23 39.3301 214 26.5301C212.67 12.5701 220.55 1.5401 234.7 0.1201H234.71Z" fill="#26C9B9"/>
<path d="M36.34 0.120024C47.84 -0.829976 58.34 7.81002 59.76 19.16C61.46 32.8 54.94 51.03 39.64 53.23C26.28 54 19.7 44.06 16.58 32.29C12.52 16.98 19.08 1.58002 36.34 0.120024Z" fill="#19E65E"/>
</g>
<defs>
<clipPath id="clip0_31_2053">
<rect width="273.85" height="261.61" fill="white"/>
</clipPath>
</defs>
</svg>
