<svg width="49" height="48" viewBox="0 0 49 48" fill="none" xmlns="http://www.w3.org/2000/svg">
<path d="M44.0463 31.803C45.4042 31.7634 46.3278 30.9522 47.4801 29.2839L39.9674 41.9332C39.427 43.134 38.6874 43.3308 37.9132 43.2554H31.2743L31.2347 47.2883L25.6446 37.5848L31.2718 27.7675V31.8005H44.0463V31.803ZM22.5838 1.5286C21.5376 -0.146146 20.034 0.0186456 19.5613 0.0186456H33.3744C34.6941 -0.105268 35.2357 0.401882 35.587 1.14025L38.8854 6.88497L42.3741 4.86787L36.7853 14.6097L25.4938 14.6519L28.9468 12.6335L22.5838 1.5286ZM7.24921 35.4897C6.59132 36.6561 6.78167 37.7713 7.58646 39.3796L0.49531 26.8759C-0.241782 25.7849 -0.0476085 25.0887 0.376507 24.4283L3.7145 18.6861L0.224489 16.6281H11.4418L17.1482 26.4083L13.6544 24.3938L7.24921 35.4897Z" fill="#19E65E"/>
<path d="M47.9643 22.7227C50.0235 27.3037 46.218 31.8335 44.4308 31.8693H39.9802L33.2952 20.0056L43.1534 14.3017L47.8876 22.4877L47.9643 22.7227ZM24.4118 2.90683L21.9297 0.017226H19.2522C17.0958 -0.0172653 14.4668 0.745375 12.916 2.96559L12.7972 3.15977L8.06422 11.3483L17.9249 17.0546L25.0774 5.36338L24.4118 2.90683ZM13.3069 43.3089C8.298 42.8018 6.10844 37.6817 6.96178 36.0887L8.97888 31.9357H23.7475L23.0092 43.3485H13.5407L13.3069 43.3089Z" fill="#26C9B9"/>
</svg>
